<mxfile host="app.diagrams.net" modified="2022-09-13T19:09:28.007Z" agent="5.0 (Macintosh; Intel Mac OS X 10_15_7) AppleWebKit/605.1.15 (KHTML, like Gecko) Version/15.6 Safari/605.1.15" etag="uujmDP54QcY8J09TfrA2" version="20.3.0" type="github">
  <diagram id="R72xpftQf27Ip1RvpkjA" name="第 1 页">
    <mxGraphModel dx="1761" dy="1029" grid="1" gridSize="10" guides="1" tooltips="1" connect="1" arrows="1" fold="1" page="1" pageScale="1" pageWidth="1600" pageHeight="900" math="0" shadow="0">
      <root>
        <mxCell id="0" />
        <mxCell id="1" parent="0" />
        <mxCell id="VtOh25nKIVE9-SRD8lgk-8" style="edgeStyle=orthogonalEdgeStyle;rounded=0;orthogonalLoop=1;jettySize=auto;html=1;exitX=0.5;exitY=1;exitDx=0;exitDy=0;entryX=0.5;entryY=0;entryDx=0;entryDy=0;" parent="1" source="5EwydSjhKdnhN7gfjWJQ-1" target="5EwydSjhKdnhN7gfjWJQ-2" edge="1">
          <mxGeometry relative="1" as="geometry" />
        </mxCell>
        <mxCell id="5EwydSjhKdnhN7gfjWJQ-1" value="&lt;font style=&quot;font-size: 24px;&quot;&gt;14x14x8&lt;/font&gt;" style="rounded=0;whiteSpace=wrap;html=1;fillColor=#dae8fc;strokeColor=#6c8ebf;" parent="1" vertex="1">
          <mxGeometry x="80" y="50" width="440" height="40" as="geometry" />
        </mxCell>
        <mxCell id="VtOh25nKIVE9-SRD8lgk-10" style="edgeStyle=orthogonalEdgeStyle;rounded=0;orthogonalLoop=1;jettySize=auto;html=1;exitX=0.5;exitY=1;exitDx=0;exitDy=0;entryX=0.5;entryY=0;entryDx=0;entryDy=0;" parent="1" source="5EwydSjhKdnhN7gfjWJQ-2" target="5EwydSjhKdnhN7gfjWJQ-3" edge="1">
          <mxGeometry relative="1" as="geometry" />
        </mxCell>
        <mxCell id="5EwydSjhKdnhN7gfjWJQ-2" value="&lt;font style=&quot;font-size: 24px;&quot;&gt;7x7x16&lt;/font&gt;" style="rounded=0;whiteSpace=wrap;html=1;fillColor=#dae8fc;strokeColor=#6c8ebf;" parent="1" vertex="1">
          <mxGeometry x="135" y="112" width="330" height="70" as="geometry" />
        </mxCell>
        <mxCell id="9c9NpYE48J-kE4mlwr7C-1" style="edgeStyle=orthogonalEdgeStyle;rounded=0;orthogonalLoop=1;jettySize=auto;html=1;entryX=0.5;entryY=0;entryDx=0;entryDy=0;" edge="1" parent="1" source="5EwydSjhKdnhN7gfjWJQ-3" target="5EwydSjhKdnhN7gfjWJQ-5">
          <mxGeometry relative="1" as="geometry" />
        </mxCell>
        <mxCell id="5EwydSjhKdnhN7gfjWJQ-3" value="&lt;font style=&quot;font-size: 24px;&quot;&gt;3x3x32&lt;/font&gt;" style="rounded=0;whiteSpace=wrap;html=1;fillColor=#dae8fc;strokeColor=#6c8ebf;" parent="1" vertex="1">
          <mxGeometry x="192.5" y="210" width="215" height="100" as="geometry" />
        </mxCell>
        <mxCell id="9c9NpYE48J-kE4mlwr7C-4" style="edgeStyle=orthogonalEdgeStyle;rounded=0;orthogonalLoop=1;jettySize=auto;html=1;entryX=0.5;entryY=0;entryDx=0;entryDy=0;" edge="1" parent="1" source="5EwydSjhKdnhN7gfjWJQ-5" target="5EwydSjhKdnhN7gfjWJQ-6">
          <mxGeometry relative="1" as="geometry" />
        </mxCell>
        <mxCell id="5EwydSjhKdnhN7gfjWJQ-5" value="&lt;font style=&quot;font-size: 24px;&quot;&gt;64&lt;/font&gt;" style="rounded=0;whiteSpace=wrap;html=1;fillColor=#dae8fc;strokeColor=#6c8ebf;" parent="1" vertex="1">
          <mxGeometry x="251.25" y="330" width="97.5" height="190" as="geometry" />
        </mxCell>
        <mxCell id="VtOh25nKIVE9-SRD8lgk-16" style="edgeStyle=orthogonalEdgeStyle;rounded=0;orthogonalLoop=1;jettySize=auto;html=1;entryX=0.5;entryY=0;entryDx=0;entryDy=0;" parent="1" source="5EwydSjhKdnhN7gfjWJQ-6" target="5EwydSjhKdnhN7gfjWJQ-7" edge="1">
          <mxGeometry relative="1" as="geometry" />
        </mxCell>
        <mxCell id="5EwydSjhKdnhN7gfjWJQ-6" value="&lt;font style=&quot;font-size: 24px;&quot;&gt;3x3x16&lt;/font&gt;" style="rounded=0;whiteSpace=wrap;html=1;fillColor=#f8cecc;strokeColor=#b85450;" parent="1" vertex="1">
          <mxGeometry x="192.5" y="550" width="215" height="100" as="geometry" />
        </mxCell>
        <mxCell id="VtOh25nKIVE9-SRD8lgk-17" style="edgeStyle=orthogonalEdgeStyle;rounded=0;orthogonalLoop=1;jettySize=auto;html=1;entryX=0.5;entryY=0;entryDx=0;entryDy=0;" parent="1" source="5EwydSjhKdnhN7gfjWJQ-7" target="5EwydSjhKdnhN7gfjWJQ-8" edge="1">
          <mxGeometry relative="1" as="geometry" />
        </mxCell>
        <mxCell id="5EwydSjhKdnhN7gfjWJQ-7" value="&lt;font style=&quot;font-size: 24px;&quot;&gt;7x7x8&lt;/font&gt;" style="rounded=0;whiteSpace=wrap;html=1;fillColor=#f8cecc;strokeColor=#b85450;" parent="1" vertex="1">
          <mxGeometry x="151.25" y="670" width="297.5" height="70" as="geometry" />
        </mxCell>
        <mxCell id="VtOh25nKIVE9-SRD8lgk-18" style="edgeStyle=orthogonalEdgeStyle;rounded=0;orthogonalLoop=1;jettySize=auto;html=1;entryX=0.5;entryY=0;entryDx=0;entryDy=0;" parent="1" source="5EwydSjhKdnhN7gfjWJQ-8" target="5EwydSjhKdnhN7gfjWJQ-9" edge="1">
          <mxGeometry relative="1" as="geometry" />
        </mxCell>
        <mxCell id="5EwydSjhKdnhN7gfjWJQ-8" value="&lt;font style=&quot;font-size: 24px;&quot;&gt;14x14x4&lt;/font&gt;" style="rounded=0;whiteSpace=wrap;html=1;fillColor=#f8cecc;strokeColor=#b85450;" parent="1" vertex="1">
          <mxGeometry x="80" y="760" width="440" height="50" as="geometry" />
        </mxCell>
        <mxCell id="5EwydSjhKdnhN7gfjWJQ-9" value="&lt;font style=&quot;font-size: 24px;&quot;&gt;14x14x1&lt;/font&gt;" style="rounded=0;whiteSpace=wrap;html=1;fillColor=#f8cecc;strokeColor=#b85450;" parent="1" vertex="1">
          <mxGeometry x="80" y="840" width="440" height="30" as="geometry" />
        </mxCell>
        <mxCell id="VtOh25nKIVE9-SRD8lgk-11" style="edgeStyle=orthogonalEdgeStyle;rounded=0;orthogonalLoop=1;jettySize=auto;html=1;entryX=0.5;entryY=0;entryDx=0;entryDy=0;" parent="1" source="VtOh25nKIVE9-SRD8lgk-1" target="VtOh25nKIVE9-SRD8lgk-2" edge="1">
          <mxGeometry relative="1" as="geometry" />
        </mxCell>
        <mxCell id="VtOh25nKIVE9-SRD8lgk-1" value="&lt;font style=&quot;font-size: 24px;&quot;&gt;14x14x128&lt;/font&gt;" style="rounded=0;whiteSpace=wrap;html=1;fillColor=#d5e8d4;strokeColor=#82b366;" parent="1" vertex="1">
          <mxGeometry x="590" y="50" width="440" height="270" as="geometry" />
        </mxCell>
        <mxCell id="VtOh25nKIVE9-SRD8lgk-12" style="edgeStyle=orthogonalEdgeStyle;rounded=0;orthogonalLoop=1;jettySize=auto;html=1;entryX=0.5;entryY=0;entryDx=0;entryDy=0;" parent="1" source="VtOh25nKIVE9-SRD8lgk-2" target="VtOh25nKIVE9-SRD8lgk-3" edge="1">
          <mxGeometry relative="1" as="geometry" />
        </mxCell>
        <mxCell id="VtOh25nKIVE9-SRD8lgk-2" value="&lt;font style=&quot;font-size: 24px;&quot;&gt;14x14x64&lt;/font&gt;" style="rounded=0;whiteSpace=wrap;html=1;fillColor=#d5e8d4;strokeColor=#82b366;" parent="1" vertex="1">
          <mxGeometry x="590" y="355" width="440" height="160" as="geometry" />
        </mxCell>
        <mxCell id="VtOh25nKIVE9-SRD8lgk-13" style="edgeStyle=orthogonalEdgeStyle;rounded=0;orthogonalLoop=1;jettySize=auto;html=1;" parent="1" source="VtOh25nKIVE9-SRD8lgk-3" target="VtOh25nKIVE9-SRD8lgk-4" edge="1">
          <mxGeometry relative="1" as="geometry" />
        </mxCell>
        <mxCell id="VtOh25nKIVE9-SRD8lgk-3" value="&lt;font style=&quot;font-size: 24px;&quot;&gt;14x14x32&lt;/font&gt;" style="rounded=0;whiteSpace=wrap;html=1;fillColor=#d5e8d4;strokeColor=#82b366;" parent="1" vertex="1">
          <mxGeometry x="590" y="540" width="440" height="120" as="geometry" />
        </mxCell>
        <mxCell id="VtOh25nKIVE9-SRD8lgk-14" style="edgeStyle=orthogonalEdgeStyle;rounded=0;orthogonalLoop=1;jettySize=auto;html=1;entryX=0.5;entryY=0;entryDx=0;entryDy=0;" parent="1" source="VtOh25nKIVE9-SRD8lgk-4" target="VtOh25nKIVE9-SRD8lgk-5" edge="1">
          <mxGeometry relative="1" as="geometry" />
        </mxCell>
        <mxCell id="VtOh25nKIVE9-SRD8lgk-4" value="&lt;font style=&quot;font-size: 24px;&quot;&gt;14x14x16&lt;/font&gt;" style="rounded=0;whiteSpace=wrap;html=1;fillColor=#d5e8d4;strokeColor=#82b366;" parent="1" vertex="1">
          <mxGeometry x="590" y="680" width="440" height="70" as="geometry" />
        </mxCell>
        <mxCell id="VtOh25nKIVE9-SRD8lgk-15" style="edgeStyle=orthogonalEdgeStyle;rounded=0;orthogonalLoop=1;jettySize=auto;html=1;entryX=0.5;entryY=0;entryDx=0;entryDy=0;" parent="1" source="VtOh25nKIVE9-SRD8lgk-5" target="VtOh25nKIVE9-SRD8lgk-6" edge="1">
          <mxGeometry relative="1" as="geometry" />
        </mxCell>
        <mxCell id="VtOh25nKIVE9-SRD8lgk-5" value="&lt;font style=&quot;font-size: 24px;&quot;&gt;14x14x8&lt;/font&gt;" style="rounded=0;whiteSpace=wrap;html=1;fillColor=#d5e8d4;strokeColor=#82b366;" parent="1" vertex="1">
          <mxGeometry x="590" y="770" width="440" height="45" as="geometry" />
        </mxCell>
        <mxCell id="VtOh25nKIVE9-SRD8lgk-6" value="&lt;font style=&quot;font-size: 24px;&quot;&gt;14x14x1&lt;/font&gt;" style="rounded=0;whiteSpace=wrap;html=1;fillColor=#d5e8d4;strokeColor=#82b366;" parent="1" vertex="1">
          <mxGeometry x="590" y="830" width="440" height="30" as="geometry" />
        </mxCell>
      </root>
    </mxGraphModel>
  </diagram>
</mxfile>
